<mxfile host="app.diagrams.net" modified="2023-12-27T05:03:51.023Z" agent="Mozilla/5.0 (Windows NT 10.0; Win64; x64) AppleWebKit/537.36 (KHTML, like Gecko) Chrome/120.0.0.0 Safari/537.36" etag="XY6F5gatqLSpt13WPw55" version="22.1.12" type="github">
  <diagram name="Page-1" id="74e2e168-ea6b-b213-b513-2b3c1d86103e">
    <mxGraphModel dx="2074" dy="1106" grid="1" gridSize="10" guides="1" tooltips="1" connect="1" arrows="1" fold="1" page="1" pageScale="1" pageWidth="1100" pageHeight="850" background="none" math="0" shadow="0">
      <root>
        <mxCell id="0" />
        <mxCell id="1" parent="0" />
        <mxCell id="G95o8ONbvWSTIBkPxaX5-12" style="edgeStyle=orthogonalEdgeStyle;rounded=0;orthogonalLoop=1;jettySize=auto;html=1;" edge="1" parent="1" source="G95o8ONbvWSTIBkPxaX5-1">
          <mxGeometry relative="1" as="geometry">
            <mxPoint x="410" y="280" as="targetPoint" />
          </mxGeometry>
        </mxCell>
        <mxCell id="G95o8ONbvWSTIBkPxaX5-1" value="第一版保护发布" style="rounded=0;whiteSpace=wrap;html=1;" vertex="1" parent="1">
          <mxGeometry x="150" y="170" width="120" height="60" as="geometry" />
        </mxCell>
        <mxCell id="G95o8ONbvWSTIBkPxaX5-8" style="edgeStyle=orthogonalEdgeStyle;rounded=0;orthogonalLoop=1;jettySize=auto;html=1;entryX=0;entryY=0.5;entryDx=0;entryDy=0;" edge="1" parent="1" source="G95o8ONbvWSTIBkPxaX5-2" target="G95o8ONbvWSTIBkPxaX5-7">
          <mxGeometry relative="1" as="geometry" />
        </mxCell>
        <mxCell id="G95o8ONbvWSTIBkPxaX5-2" value="定时检测内存是否变化" style="rounded=0;whiteSpace=wrap;html=1;" vertex="1" parent="1">
          <mxGeometry x="150" y="290" width="120" height="60" as="geometry" />
        </mxCell>
        <mxCell id="G95o8ONbvWSTIBkPxaX5-11" style="edgeStyle=orthogonalEdgeStyle;rounded=0;orthogonalLoop=1;jettySize=auto;html=1;entryX=0.5;entryY=1;entryDx=0;entryDy=0;" edge="1" parent="1" source="G95o8ONbvWSTIBkPxaX5-3" target="G95o8ONbvWSTIBkPxaX5-7">
          <mxGeometry relative="1" as="geometry" />
        </mxCell>
        <mxCell id="G95o8ONbvWSTIBkPxaX5-3" value="用户主动发布" style="rounded=0;whiteSpace=wrap;html=1;" vertex="1" parent="1">
          <mxGeometry x="150" y="410" width="120" height="60" as="geometry" />
        </mxCell>
        <mxCell id="G95o8ONbvWSTIBkPxaX5-5" value="do action" style="rounded=0;whiteSpace=wrap;html=1;" vertex="1" parent="1">
          <mxGeometry x="840" y="290" width="120" height="60" as="geometry" />
        </mxCell>
        <mxCell id="G95o8ONbvWSTIBkPxaX5-10" style="edgeStyle=orthogonalEdgeStyle;rounded=0;orthogonalLoop=1;jettySize=auto;html=1;entryX=0;entryY=0.5;entryDx=0;entryDy=0;" edge="1" parent="1" source="G95o8ONbvWSTIBkPxaX5-6" target="G95o8ONbvWSTIBkPxaX5-5">
          <mxGeometry relative="1" as="geometry" />
        </mxCell>
        <mxCell id="G95o8ONbvWSTIBkPxaX5-6" value="topic 是否被订阅" style="rhombus;whiteSpace=wrap;html=1;" vertex="1" parent="1">
          <mxGeometry x="560" y="280" width="160" height="80" as="geometry" />
        </mxCell>
        <mxCell id="G95o8ONbvWSTIBkPxaX5-9" style="edgeStyle=orthogonalEdgeStyle;rounded=0;orthogonalLoop=1;jettySize=auto;html=1;entryX=0;entryY=0.5;entryDx=0;entryDy=0;" edge="1" parent="1" source="G95o8ONbvWSTIBkPxaX5-7" target="G95o8ONbvWSTIBkPxaX5-6">
          <mxGeometry relative="1" as="geometry" />
        </mxCell>
        <mxCell id="G95o8ONbvWSTIBkPxaX5-7" value="发布 tpoic" style="rounded=0;whiteSpace=wrap;html=1;" vertex="1" parent="1">
          <mxGeometry x="350" y="290" width="120" height="60" as="geometry" />
        </mxCell>
      </root>
    </mxGraphModel>
  </diagram>
</mxfile>
